<svg xmlns="http://www.w3.org/2000/svg" xmlns:v="https://svgstorm.com"
viewBox = "0 0 1000 1000"
width="1000"
height="1000">
<g fill="None" fill-opacity="0.0" stroke="#000000" stroke-opacity="0.00" stroke-width="0.3"><path d="
M 0.00 1000.00 
L 1000.00 1000.00
L 1000.00 0.00
L 0.00 0.00
L 0.00 1000.00
M 532.00 4.00 
C 569.81 7.66 615.00 15.32 650.22 26.78 C 685.45 38.24 717.25 51.77 748.23 69.77 C 779.21 87.77 804.26 105.48 830.75 129.25 C 857.24 153.01 877.22 174.23 898.30 202.70 C 919.39 231.17 935.81 258.48 951.31 291.69 C 966.80 324.91 977.92 360.60 986.00 398.00 C 994.08 435.41 998.19 488.66 995.67 528.67 C 993.15 568.68 984.66 612.16 973.07 648.07 C 961.49 683.99 947.86 714.56 929.75 745.75 C 911.63 776.93 893.95 801.67 870.08 828.08 C 846.21 854.49 824.61 874.17 796.25 895.25 C 767.89 916.32 739.83 932.19 706.77 947.77 C 673.71 963.36 637.33 973.99 600.00 982.00 C 562.67 990.01 509.09 994.43 469.00 992.00 C 428.91 989.57 385.94 980.24 349.78 969.22 C 313.61 958.21 283.16 944.03 251.77 926.23 C 220.38 908.43 195.92 890.43 169.25 866.75 C 142.57 843.08 122.87 821.73 101.70 793.30 C 80.53 764.88 64.23 737.50 48.69 704.31 C 33.16 671.11 22.09 635.39 14.00 598.00 C 5.91 560.60 1.81 507.33 4.33 467.33 C 6.85 427.33 15.34 383.83 26.93 347.93 C 38.52 312.03 52.11 281.41 70.25 250.25 C 88.40 219.10 105.99 194.26 129.92 167.92 C 153.85 141.57 175.26 121.67 203.75 100.75 C 232.24 79.83 259.88 63.48 293.23 48.23 C 326.58 32.98 362.03 21.27 400.00 14.00 C 437.98 6.74 489.46 -0.12 531.00 4.00 Z"/>
</g>
<g fill="None" fill-opacity="0.0" stroke="#F3FE0C" stroke-opacity="1.00" stroke-width="0.3"><path d="
M 531.00 4.00 
C 489.46 -0.12 437.98 6.74 400.00 14.00 C 362.03 21.27 326.58 32.98 293.23 48.23 C 259.88 63.48 232.24 79.83 203.75 100.75 C 175.26 121.67 153.85 141.57 129.92 167.92 C 105.99 194.26 88.40 219.10 70.25 250.25 C 52.11 281.41 38.52 312.03 26.93 347.93 C 15.34 383.83 6.85 427.33 4.33 467.33 C 1.81 507.33 5.91 560.60 14.00 598.00 C 22.09 635.39 33.16 671.11 48.69 704.31 C 64.23 737.50 80.53 764.88 101.70 793.30 C 122.87 821.73 142.57 843.08 169.25 866.75 C 195.92 890.43 220.38 908.43 251.77 926.23 C 283.16 944.03 313.61 958.21 349.78 969.22 C 385.94 980.24 428.91 989.57 469.00 992.00 C 509.09 994.43 562.67 990.01 600.00 982.00 C 637.33 973.99 673.71 963.36 706.77 947.77 C 739.83 932.19 767.89 916.32 796.25 895.25 C 824.61 874.17 846.21 854.49 870.08 828.08 C 893.95 801.67 911.63 776.93 929.75 745.75 C 947.86 714.56 961.49 683.99 973.07 648.07 C 984.66 612.16 993.15 568.68 995.67 528.67 C 998.19 488.66 994.08 435.41 986.00 398.00 C 977.92 360.60 966.80 324.91 951.31 291.69 C 935.81 258.48 919.39 231.17 898.30 202.70 C 877.22 174.23 857.24 153.01 830.75 129.25 C 804.26 105.48 779.21 87.77 748.23 69.77 C 717.25 51.77 685.45 38.24 650.22 26.78 C 615.00 15.32 569.81 7.66 532.00 4.00
M 311.00 272.00 
C 372.57 277.96 435.87 327.84 427.01 396.01 C 418.15 464.17 348.80 498.72 285.93 495.07 C 223.05 491.42 160.35 438.77 169.00 372.00 C 177.65 305.23 247.64 265.87 311.00 272.00
M 715.00 344.00 
C 760.93 349.55 806.23 387.31 799.01 438.01 C 791.79 488.71 741.10 514.27 693.93 511.07 C 646.75 507.88 602.01 467.25 608.99 417.99 C 615.97 368.73 667.57 338.27 715.00 344.00
M 716.00 740.00 
C 764.52 701.07 811.52 659.89 860.00 621.00
C 863.84 639.35 867.36 657.84 872.00 676.00
C 864.00 680.75 856.95 687.06 849.25 692.25 C 841.54 697.44 834.26 703.22 826.75 708.75 C 819.24 714.28 811.26 719.19 803.77 724.77 C 796.28 730.35 788.88 735.88 781.25 741.25 C 773.63 746.63 766.29 752.15 758.75 757.75 C 751.22 763.36 743.37 768.12 735.92 773.92 C 728.46 779.72 720.78 784.38 713.25 790.25 C 705.73 796.13 698.24 800.25 690.75 806.75 C 683.27 813.25 675.33 815.20 667.92 822.92 C 660.51 830.64 652.27 831.19 645.30 822.70 C 638.34 814.20 631.35 811.87 624.25 804.75 C 617.15 797.64 610.38 793.54 603.25 786.75 C 596.11 779.97 589.21 776.21 582.25 768.75 C 575.28 761.29 567.75 759.95 560.77 751.23 C 553.79 742.52 544.82 745.94 535.78 750.78 C 526.73 755.61 517.76 758.28 508.77 762.77 C 499.78 767.26 490.28 769.94 481.31 774.31 C 472.33 778.67 463.06 782.00 453.98 785.98 C 444.89 789.95 436.12 794.32 426.92 797.92 C 417.73 801.53 408.98 806.23 399.78 809.78 C 390.57 813.32 381.92 818.14 372.77 821.77 C 363.63 825.40 354.46 829.75 345.31 833.31 C 336.15 836.86 333.28 821.77 328.25 814.75 C 323.21 807.73 319.68 796.98 314.69 789.31 C 309.71 781.63 305.45 772.40 300.70 764.31 C 295.94 756.21 291.67 747.42 286.75 739.25 C 281.83 731.09 277.97 722.21 273.08 713.92 C 268.18 705.64 263.99 697.29 259.08 688.92 C 254.16 680.56 250.45 672.22 245.08 663.92 C 239.71 655.62 234.72 646.30 241.92 637.92 C 249.13 629.54 249.24 621.26 256.00 613.00
C 263.40 619.39 270.69 625.40 277.75 632.25 C 284.82 639.10 292.35 645.95 299.70 652.30 C 307.05 658.66 313.51 665.79 320.75 672.25 C 327.99 678.71 335.70 685.57 342.75 692.25 C 349.81 698.93 357.68 705.95 364.75 712.25 C 371.82 718.55 379.12 726.35 386.23 731.77 C 393.34 737.19 400.71 751.57 408.75 744.75 C 416.79 737.93 424.40 732.82 432.23 726.23 C 440.06 719.64 447.22 714.35 455.08 708.08 C 462.94 701.81 470.39 695.53 478.25 689.25 C 486.10 682.96 494.13 677.66 501.75 670.75 C 509.36 663.83 516.97 660.07 524.75 652.75 C 532.52 645.42 540.30 642.75 548.08 634.08 C 555.86 625.41 564.32 624.85 572.25 633.75 C 580.17 642.65 588.16 643.62 596.08 650.92 C 604.01 658.22 612.16 662.34 620.08 668.92 C 628.00 675.49 636.27 680.61 644.23 686.77 C 652.19 692.93 659.62 698.45 667.70 704.30 C 675.78 710.16 683.67 716.37 691.75 722.25 C 699.83 728.13 707.56 734.66 716.00 740.00 Z"/>
</g>
<g fill="None" fill-opacity="0.0" stroke="#FEFEFE" stroke-opacity="1.00" stroke-width="0.3"><path d="
M 311.00 272.00 
C 247.64 265.87 177.65 305.23 169.00 372.00 C 160.35 438.77 223.05 491.42 285.93 495.07 C 348.80 498.72 418.15 464.17 427.01 396.01 C 435.87 327.84 372.57 277.96 311.00 272.00
M 308.00 348.00 
C 337.19 352.74 355.93 389.41 333.75 410.75 C 311.58 432.09 275.39 430.10 260.08 401.92 C 244.76 373.75 276.88 342.95 308.00 348.00 Z"/>
</g>
<g fill="None" fill-opacity="0.0" stroke="#FEFEFE" stroke-opacity="1.00" stroke-width="0.3"><path d="
M 715.00 344.00 
C 667.57 338.27 615.97 368.73 608.99 417.99 C 602.01 467.25 646.75 507.88 693.93 511.07 C 741.10 514.27 791.79 488.71 799.01 438.01 C 806.23 387.31 760.93 349.55 715.00 344.00
M 722.00 408.00 
C 742.55 410.94 756.89 436.99 740.25 451.25 C 723.60 465.51 698.73 465.06 687.08 444.92 C 675.43 424.79 700.56 404.94 722.00 408.00 Z"/>
</g>
<g fill="None" fill-opacity="0.0" stroke="#1FD6ED" stroke-opacity="1.00" stroke-width="0.3"><path d="
M 308.00 348.00 
C 276.88 342.95 244.76 373.75 260.08 401.92 C 275.39 430.10 311.58 432.09 333.75 410.75 C 355.93 389.41 337.19 352.74 308.00 348.00 Z"/>
</g>
<g fill="None" fill-opacity="0.0" stroke="#1BE4FF" stroke-opacity="1.00" stroke-width="0.3"><path d="
M 722.00 408.00 
C 700.56 404.94 675.43 424.79 687.08 444.92 C 698.73 465.06 723.60 465.51 740.25 451.25 C 756.89 436.99 742.55 410.94 722.00 408.00 Z"/>
</g>
<g fill="None" fill-opacity="0.0" stroke="#000000" stroke-opacity="1.00" stroke-width="0.3"><path d="
M 716.00 740.00 
C 707.56 734.66 699.83 728.13 691.75 722.25 C 683.67 716.37 675.78 710.16 667.70 704.30 C 659.62 698.45 652.19 692.93 644.23 686.77 C 636.27 680.61 628.00 675.49 620.08 668.92 C 612.16 662.34 604.01 658.22 596.08 650.92 C 588.16 643.62 580.17 642.65 572.25 633.75 C 564.32 624.85 555.86 625.41 548.08 634.08 C 540.30 642.75 532.52 645.42 524.75 652.75 C 516.97 660.07 509.36 663.83 501.75 670.75 C 494.13 677.66 486.10 682.96 478.25 689.25 C 470.39 695.53 462.94 701.81 455.08 708.08 C 447.22 714.35 440.06 719.64 432.23 726.23 C 424.40 732.82 416.79 737.93 408.75 744.75 C 400.71 751.57 393.34 737.19 386.23 731.77 C 379.12 726.35 371.82 718.55 364.75 712.25 C 357.68 705.95 349.81 698.93 342.75 692.25 C 335.70 685.57 327.99 678.71 320.75 672.25 C 313.51 665.79 307.05 658.66 299.70 652.30 C 292.35 645.95 284.82 639.10 277.75 632.25 C 270.69 625.40 263.40 619.39 256.00 613.00
C 249.24 621.26 249.13 629.54 241.92 637.92 C 234.72 646.30 239.71 655.62 245.08 663.92 C 250.45 672.22 254.16 680.56 259.08 688.92 C 263.99 697.29 268.18 705.64 273.08 713.92 C 277.97 722.21 281.83 731.09 286.75 739.25 C 291.67 747.42 295.94 756.21 300.70 764.31 C 305.45 772.40 309.71 781.63 314.69 789.31 C 319.68 796.98 323.21 807.73 328.25 814.75 C 333.28 821.77 336.15 836.86 345.31 833.31 C 354.46 829.75 363.63 825.40 372.77 821.77 C 381.92 818.14 390.57 813.32 399.78 809.78 C 408.98 806.23 417.73 801.53 426.92 797.92 C 436.12 794.32 444.89 789.95 453.98 785.98 C 463.06 782.00 472.33 778.67 481.31 774.31 C 490.28 769.94 499.78 767.26 508.77 762.77 C 517.76 758.28 526.73 755.61 535.78 750.78 C 544.82 745.94 553.79 742.52 560.77 751.23 C 567.75 759.95 575.28 761.29 582.25 768.75 C 589.21 776.21 596.11 779.97 603.25 786.75 C 610.38 793.54 617.15 797.64 624.25 804.75 C 631.35 811.87 638.34 814.20 645.30 822.70 C 652.27 831.19 660.51 830.64 667.92 822.92 C 675.33 815.20 683.27 813.25 690.75 806.75 C 698.24 800.25 705.73 796.13 713.25 790.25 C 720.78 784.38 728.46 779.72 735.92 773.92 C 743.37 768.12 751.22 763.36 758.75 757.75 C 766.29 752.15 773.63 746.63 781.25 741.25 C 788.88 735.88 796.28 730.35 803.77 724.77 C 811.26 719.19 819.24 714.28 826.75 708.75 C 834.26 703.22 841.54 697.44 849.25 692.25 C 856.95 687.06 864.00 680.75 872.00 676.00
C 867.36 657.84 863.84 639.35 860.00 621.00
C 811.52 659.89 764.52 701.07 716.00 740.00 Z"/>
</g>
<g fill="#000000" fill-opacity="0.00" stroke="None">
<path d="
M 0.00 1000.00 
L 1000.00 1000.00
L 1000.00 0.00
L 0.00 0.00
L 0.00 1000.00
M 532.00 4.00 
C 569.81 7.66 615.00 15.32 650.22 26.78 C 685.45 38.24 717.25 51.77 748.23 69.77 C 779.21 87.77 804.26 105.48 830.75 129.25 C 857.24 153.01 877.22 174.23 898.30 202.70 C 919.39 231.17 935.81 258.48 951.31 291.69 C 966.80 324.91 977.92 360.60 986.00 398.00 C 994.08 435.41 998.19 488.66 995.67 528.67 C 993.15 568.68 984.66 612.16 973.07 648.07 C 961.49 683.99 947.86 714.56 929.75 745.75 C 911.63 776.93 893.95 801.67 870.08 828.08 C 846.21 854.49 824.61 874.17 796.25 895.25 C 767.89 916.32 739.83 932.19 706.77 947.77 C 673.71 963.36 637.33 973.99 600.00 982.00 C 562.67 990.01 509.09 994.43 469.00 992.00 C 428.91 989.57 385.94 980.24 349.78 969.22 C 313.61 958.21 283.16 944.03 251.77 926.23 C 220.38 908.43 195.92 890.43 169.25 866.75 C 142.57 843.08 122.87 821.73 101.70 793.30 C 80.53 764.88 64.23 737.50 48.69 704.31 C 33.16 671.11 22.09 635.39 14.00 598.00 C 5.91 560.60 1.81 507.33 4.33 467.33 C 6.85 427.33 15.34 383.83 26.93 347.93 C 38.52 312.03 52.11 281.41 70.25 250.25 C 88.40 219.10 105.99 194.26 129.92 167.92 C 153.85 141.57 175.26 121.67 203.75 100.75 C 232.24 79.83 259.88 63.48 293.23 48.23 C 326.58 32.98 362.03 21.27 400.00 14.00 C 437.98 6.74 489.46 -0.12 531.00 4.00 Z"/>
</g>
<g fill="#F3FE0C" fill-opacity="1.00" stroke="None">
<path d="
M 531.00 4.00 
C 489.46 -0.12 437.98 6.74 400.00 14.00 C 362.03 21.27 326.58 32.98 293.23 48.23 C 259.88 63.48 232.24 79.83 203.75 100.75 C 175.26 121.67 153.85 141.57 129.92 167.92 C 105.99 194.26 88.40 219.10 70.25 250.25 C 52.11 281.41 38.52 312.03 26.93 347.93 C 15.34 383.83 6.85 427.33 4.33 467.33 C 1.81 507.33 5.91 560.60 14.00 598.00 C 22.09 635.39 33.16 671.11 48.69 704.31 C 64.23 737.50 80.53 764.88 101.70 793.30 C 122.87 821.73 142.57 843.08 169.25 866.75 C 195.92 890.43 220.38 908.43 251.77 926.23 C 283.16 944.03 313.61 958.21 349.78 969.22 C 385.94 980.24 428.91 989.57 469.00 992.00 C 509.09 994.43 562.67 990.01 600.00 982.00 C 637.33 973.99 673.71 963.36 706.77 947.77 C 739.83 932.19 767.89 916.32 796.25 895.25 C 824.61 874.17 846.21 854.49 870.08 828.08 C 893.95 801.67 911.63 776.93 929.75 745.75 C 947.86 714.56 961.49 683.99 973.07 648.07 C 984.66 612.16 993.15 568.68 995.67 528.67 C 998.19 488.66 994.08 435.41 986.00 398.00 C 977.92 360.60 966.80 324.91 951.31 291.69 C 935.81 258.48 919.39 231.17 898.30 202.70 C 877.22 174.23 857.24 153.01 830.75 129.25 C 804.26 105.48 779.21 87.77 748.23 69.77 C 717.25 51.77 685.45 38.24 650.22 26.78 C 615.00 15.32 569.81 7.66 532.00 4.00
M 311.00 272.00 
C 372.57 277.96 435.87 327.84 427.01 396.01 C 418.15 464.17 348.80 498.72 285.93 495.07 C 223.05 491.42 160.35 438.77 169.00 372.00 C 177.65 305.23 247.64 265.87 311.00 272.00
M 715.00 344.00 
C 760.93 349.55 806.23 387.31 799.01 438.01 C 791.79 488.71 741.10 514.27 693.93 511.07 C 646.75 507.88 602.01 467.25 608.99 417.99 C 615.97 368.73 667.57 338.27 715.00 344.00
M 716.00 740.00 
C 764.52 701.07 811.52 659.89 860.00 621.00
C 863.84 639.35 867.36 657.84 872.00 676.00
C 864.00 680.75 856.95 687.06 849.25 692.25 C 841.54 697.44 834.26 703.22 826.75 708.75 C 819.24 714.28 811.26 719.19 803.77 724.77 C 796.28 730.35 788.88 735.88 781.25 741.25 C 773.63 746.63 766.29 752.15 758.75 757.75 C 751.22 763.36 743.37 768.12 735.92 773.92 C 728.46 779.72 720.78 784.38 713.25 790.25 C 705.73 796.13 698.24 800.25 690.75 806.75 C 683.27 813.25 675.33 815.20 667.92 822.92 C 660.51 830.64 652.27 831.19 645.30 822.70 C 638.34 814.20 631.35 811.87 624.25 804.75 C 617.15 797.64 610.38 793.54 603.25 786.75 C 596.11 779.97 589.21 776.21 582.25 768.75 C 575.28 761.29 567.75 759.95 560.77 751.23 C 553.79 742.52 544.82 745.94 535.78 750.78 C 526.73 755.61 517.76 758.28 508.77 762.77 C 499.78 767.26 490.28 769.94 481.31 774.31 C 472.33 778.67 463.06 782.00 453.98 785.98 C 444.89 789.95 436.12 794.32 426.92 797.92 C 417.73 801.53 408.98 806.23 399.78 809.78 C 390.57 813.32 381.92 818.14 372.77 821.77 C 363.63 825.40 354.46 829.75 345.31 833.31 C 336.15 836.86 333.28 821.77 328.25 814.75 C 323.21 807.73 319.68 796.98 314.69 789.31 C 309.71 781.63 305.45 772.40 300.70 764.31 C 295.94 756.21 291.67 747.42 286.75 739.25 C 281.83 731.09 277.97 722.21 273.08 713.92 C 268.18 705.64 263.99 697.29 259.08 688.92 C 254.16 680.56 250.45 672.22 245.08 663.92 C 239.71 655.62 234.72 646.30 241.92 637.92 C 249.13 629.54 249.24 621.26 256.00 613.00
C 263.40 619.39 270.69 625.40 277.75 632.25 C 284.82 639.10 292.35 645.95 299.70 652.30 C 307.05 658.66 313.51 665.79 320.75 672.25 C 327.99 678.71 335.70 685.57 342.75 692.25 C 349.81 698.93 357.68 705.95 364.75 712.25 C 371.82 718.55 379.12 726.35 386.23 731.77 C 393.34 737.19 400.71 751.57 408.75 744.75 C 416.79 737.93 424.40 732.82 432.23 726.23 C 440.06 719.64 447.22 714.35 455.08 708.08 C 462.94 701.81 470.39 695.53 478.25 689.25 C 486.10 682.96 494.13 677.66 501.75 670.75 C 509.36 663.83 516.97 660.07 524.75 652.75 C 532.52 645.42 540.30 642.75 548.08 634.08 C 555.86 625.41 564.32 624.85 572.25 633.75 C 580.17 642.65 588.16 643.62 596.08 650.92 C 604.01 658.22 612.16 662.34 620.08 668.92 C 628.00 675.49 636.27 680.61 644.23 686.77 C 652.19 692.93 659.62 698.45 667.70 704.30 C 675.78 710.16 683.67 716.37 691.75 722.25 C 699.83 728.13 707.56 734.66 716.00 740.00 Z"/>
</g>
<g fill="#FEFEFE" fill-opacity="1.00" stroke="None">
<path d="
M 311.00 272.00 
C 247.64 265.87 177.65 305.23 169.00 372.00 C 160.35 438.77 223.05 491.42 285.93 495.07 C 348.80 498.72 418.15 464.17 427.01 396.01 C 435.87 327.84 372.57 277.96 311.00 272.00
M 308.00 348.00 
C 337.19 352.74 355.93 389.41 333.75 410.75 C 311.58 432.09 275.39 430.10 260.08 401.92 C 244.76 373.75 276.88 342.95 308.00 348.00 Z"/>
</g>
<g fill="#FEFEFE" fill-opacity="1.00" stroke="None">
<path d="
M 715.00 344.00 
C 667.57 338.27 615.97 368.73 608.99 417.99 C 602.01 467.25 646.75 507.88 693.93 511.07 C 741.10 514.27 791.79 488.71 799.01 438.01 C 806.23 387.31 760.93 349.55 715.00 344.00
M 722.00 408.00 
C 742.55 410.94 756.89 436.99 740.25 451.25 C 723.60 465.51 698.73 465.06 687.08 444.92 C 675.43 424.79 700.56 404.94 722.00 408.00 Z"/>
</g>
<g fill="#1FD6ED" fill-opacity="1.00" stroke="None">
<path d="
M 308.00 348.00 
C 276.88 342.95 244.76 373.75 260.08 401.92 C 275.39 430.10 311.58 432.09 333.75 410.75 C 355.93 389.41 337.19 352.74 308.00 348.00 Z"/>
</g>
<g fill="#1BE4FF" fill-opacity="1.00" stroke="None">
<path d="
M 722.00 408.00 
C 700.56 404.94 675.43 424.79 687.08 444.92 C 698.73 465.06 723.60 465.51 740.25 451.25 C 756.89 436.99 742.55 410.94 722.00 408.00 Z"/>
</g>
<g fill="#000000" fill-opacity="1.00" stroke="None">
<path d="
M 716.00 740.00 
C 707.56 734.66 699.83 728.13 691.75 722.25 C 683.67 716.37 675.78 710.16 667.70 704.30 C 659.62 698.45 652.19 692.93 644.23 686.77 C 636.27 680.61 628.00 675.49 620.08 668.92 C 612.16 662.34 604.01 658.22 596.08 650.92 C 588.16 643.62 580.17 642.65 572.25 633.75 C 564.32 624.85 555.86 625.41 548.08 634.08 C 540.30 642.75 532.52 645.42 524.75 652.75 C 516.97 660.07 509.36 663.83 501.75 670.75 C 494.13 677.66 486.10 682.96 478.25 689.25 C 470.39 695.53 462.94 701.81 455.08 708.08 C 447.22 714.35 440.06 719.64 432.23 726.23 C 424.40 732.82 416.79 737.93 408.75 744.75 C 400.71 751.57 393.34 737.19 386.23 731.77 C 379.12 726.35 371.82 718.55 364.75 712.25 C 357.68 705.95 349.81 698.93 342.75 692.25 C 335.70 685.57 327.99 678.71 320.75 672.25 C 313.51 665.79 307.05 658.66 299.70 652.30 C 292.35 645.95 284.82 639.10 277.75 632.25 C 270.69 625.40 263.40 619.39 256.00 613.00
C 249.24 621.26 249.13 629.54 241.92 637.92 C 234.72 646.30 239.71 655.62 245.08 663.92 C 250.45 672.22 254.16 680.56 259.08 688.92 C 263.99 697.29 268.18 705.64 273.08 713.92 C 277.97 722.21 281.83 731.09 286.75 739.25 C 291.67 747.42 295.94 756.21 300.70 764.31 C 305.45 772.40 309.71 781.63 314.69 789.31 C 319.68 796.98 323.21 807.73 328.25 814.75 C 333.28 821.77 336.15 836.86 345.31 833.31 C 354.46 829.75 363.63 825.40 372.77 821.77 C 381.92 818.14 390.57 813.32 399.78 809.78 C 408.98 806.23 417.73 801.53 426.92 797.92 C 436.12 794.32 444.89 789.95 453.98 785.98 C 463.06 782.00 472.33 778.67 481.31 774.31 C 490.28 769.94 499.78 767.26 508.77 762.77 C 517.76 758.28 526.73 755.61 535.78 750.78 C 544.82 745.94 553.79 742.52 560.77 751.23 C 567.75 759.95 575.28 761.29 582.25 768.75 C 589.21 776.21 596.11 779.97 603.25 786.75 C 610.38 793.54 617.15 797.64 624.25 804.75 C 631.35 811.87 638.34 814.20 645.30 822.70 C 652.27 831.19 660.51 830.64 667.92 822.92 C 675.33 815.20 683.27 813.25 690.75 806.75 C 698.24 800.25 705.73 796.13 713.25 790.25 C 720.78 784.38 728.46 779.72 735.92 773.92 C 743.37 768.12 751.22 763.36 758.75 757.75 C 766.29 752.15 773.63 746.63 781.25 741.25 C 788.88 735.88 796.28 730.35 803.77 724.77 C 811.26 719.19 819.24 714.28 826.75 708.75 C 834.26 703.22 841.54 697.44 849.25 692.25 C 856.95 687.06 864.00 680.75 872.00 676.00
C 867.36 657.84 863.84 639.35 860.00 621.00
C 811.52 659.89 764.52 701.07 716.00 740.00 Z"/>
</g>
</svg>