<svg xmlns="http://www.w3.org/2000/svg" xmlns:v="https://svgstorm.com"
viewBox = "0 0 500 1000"
width="500"
height="1000">
<g fill="None" fill-opacity="0.0" stroke="#680D0D" stroke-opacity="1.00" stroke-width="0.3"><path d="
M 0.00 1000.00 
L 500.00 1000.00
L 500.00 0.00
L 0.00 0.00
L 0.00 1000.00
M 446.00 204.00 
C 446.00 291.67 446.00 379.33 446.00 467.00
C 382.33 467.00 318.67 467.00 255.00 467.00
C 255.00 379.33 255.00 291.67 255.00 204.00
C 318.67 204.00 382.33 204.00 446.00 204.00
M 212.00 284.00 
C 212.00 344.00 212.00 404.00 212.00 464.00
C 158.00 464.00 104.00 464.00 50.00 464.00
C 50.00 404.00 50.00 344.00 50.00 284.00
C 104.00 284.00 158.00 284.00 212.00 284.00 Z"/>
</g>
<g fill="None" fill-opacity="0.0" stroke="#000000" stroke-opacity="1.00" stroke-width="0.3"><path d="
M 446.00 204.00 
C 382.33 204.00 318.67 204.00 255.00 204.00
C 255.00 291.67 255.00 379.33 255.00 467.00
C 318.67 467.00 382.33 467.00 446.00 467.00
C 446.00 379.33 446.00 291.67 446.00 204.00
M 411.00 242.00 
C 411.00 311.33 411.00 380.67 411.00 450.00
C 373.00 450.00 335.00 450.00 297.00 450.00
C 297.00 380.67 297.00 311.33 297.00 242.00
C 335.00 242.00 373.00 242.00 411.00 242.00 Z"/>
</g>
<g fill="None" fill-opacity="0.0" stroke="#DEC80D" stroke-opacity="1.00" stroke-width="0.3"><path d="
M 411.00 242.00 
C 373.00 242.00 335.00 242.00 297.00 242.00
C 297.00 311.33 297.00 380.67 297.00 450.00
C 335.00 450.00 373.00 450.00 411.00 450.00
C 411.00 380.67 411.00 311.33 411.00 242.00 Z"/>
</g>
<g fill="None" fill-opacity="0.0" stroke="#000000" stroke-opacity="1.00" stroke-width="0.3"><path d="
M 212.00 284.00 
C 158.00 284.00 104.00 284.00 50.00 284.00
C 50.00 344.00 50.00 404.00 50.00 464.00
C 104.00 464.00 158.00 464.00 212.00 464.00
C 212.00 404.00 212.00 344.00 212.00 284.00
M 167.00 348.00 
C 167.00 375.00 167.00 402.00 167.00 429.00
C 143.33 429.00 119.67 429.00 96.00 429.00
C 96.00 402.00 96.00 375.00 96.00 348.00
C 119.67 348.00 143.33 348.00 167.00 348.00 Z"/>
</g>
<g fill="None" fill-opacity="0.0" stroke="#DDC80C" stroke-opacity="1.00" stroke-width="0.3"><path d="
M 167.00 348.00 
C 143.33 348.00 119.67 348.00 96.00 348.00
C 96.00 375.00 96.00 402.00 96.00 429.00
C 119.67 429.00 143.33 429.00 167.00 429.00
C 167.00 402.00 167.00 375.00 167.00 348.00 Z"/>
</g>
<g fill="#680D0D" fill-opacity="1.00" stroke="None">
<path d="
M 0.00 1000.00 
L 500.00 1000.00
L 500.00 0.00
L 0.00 0.00
L 0.00 1000.00
M 446.00 204.00 
C 446.00 291.67 446.00 379.33 446.00 467.00
C 382.33 467.00 318.67 467.00 255.00 467.00
C 255.00 379.33 255.00 291.67 255.00 204.00
C 318.67 204.00 382.33 204.00 446.00 204.00
M 212.00 284.00 
C 212.00 344.00 212.00 404.00 212.00 464.00
C 158.00 464.00 104.00 464.00 50.00 464.00
C 50.00 404.00 50.00 344.00 50.00 284.00
C 104.00 284.00 158.00 284.00 212.00 284.00 Z"/>
</g>
<g fill="#000000" fill-opacity="1.00" stroke="None">
<path d="
M 446.00 204.00 
C 382.33 204.00 318.67 204.00 255.00 204.00
C 255.00 291.67 255.00 379.33 255.00 467.00
C 318.67 467.00 382.33 467.00 446.00 467.00
C 446.00 379.33 446.00 291.67 446.00 204.00
M 411.00 242.00 
C 411.00 311.33 411.00 380.67 411.00 450.00
C 373.00 450.00 335.00 450.00 297.00 450.00
C 297.00 380.67 297.00 311.33 297.00 242.00
C 335.00 242.00 373.00 242.00 411.00 242.00 Z"/>
</g>
<g fill="#DEC80D" fill-opacity="1.00" stroke="None">
<path d="
M 411.00 242.00 
C 373.00 242.00 335.00 242.00 297.00 242.00
C 297.00 311.33 297.00 380.67 297.00 450.00
C 335.00 450.00 373.00 450.00 411.00 450.00
C 411.00 380.67 411.00 311.33 411.00 242.00 Z"/>
</g>
<g fill="#000000" fill-opacity="1.00" stroke="None">
<path d="
M 212.00 284.00 
C 158.00 284.00 104.00 284.00 50.00 284.00
C 50.00 344.00 50.00 404.00 50.00 464.00
C 104.00 464.00 158.00 464.00 212.00 464.00
C 212.00 404.00 212.00 344.00 212.00 284.00
M 167.00 348.00 
C 167.00 375.00 167.00 402.00 167.00 429.00
C 143.33 429.00 119.67 429.00 96.00 429.00
C 96.00 402.00 96.00 375.00 96.00 348.00
C 119.67 348.00 143.33 348.00 167.00 348.00 Z"/>
</g>
<g fill="#DDC80C" fill-opacity="1.00" stroke="None">
<path d="
M 167.00 348.00 
C 143.33 348.00 119.67 348.00 96.00 348.00
C 96.00 375.00 96.00 402.00 96.00 429.00
C 119.67 429.00 143.33 429.00 167.00 429.00
C 167.00 402.00 167.00 375.00 167.00 348.00 Z"/>
</g>
</svg>